<svg width="491" height="419" viewBox="0 0 491 419" fill="none" xmlns="http://www.w3.org/2000/svg">
<g filter="url(#filter0_d_1839_359)">
<path d="M248.375 398.114C248.377 398.116 248.376 398.119 248.374 398.119H243.215C242.826 398.119 242.444 398.013 242.111 397.812C241.063 397.18 240.021 396.543 238.959 395.936C168.61 355.655 98.2878 315.335 27.865 275.196C22.0652 271.891 20.0068 267.599 20.0202 261.171C20.1342 188.416 20.1476 115.654 20.0001 42.8913C19.9866 35.9932 22.4273 31.6945 28.4752 28.2488C98.3616 -11.5478 168.154 108.501 237.893 68.4426C243.244 65.3731 247.736 65.3328 253.073 68.3889C322.826 108.434 392.625 -11.5948 462.511 28.2085C468.552 31.6475 471.033 35.9663 471 42.8644C470.805 80.8474 470.906 118.831 470.906 156.814C470.906 191.908 470.845 227.01 470.959 262.105C470.98 268.022 468.881 272.173 463.571 274.954C457.764 277.997 452.159 281.409 446.473 284.666C380.443 322.481 314.406 360.296 248.376 398.11C248.374 398.111 248.374 398.113 248.375 398.114V398.114Z" fill="white"/>
</g>
<defs>
<filter id="filter0_d_1839_359" x="0" y="0" width="491" height="418.119" filterUnits="userSpaceOnUse" color-interpolation-filters="sRGB">
<feFlood flood-opacity="0" result="BackgroundImageFix"/>
<feColorMatrix in="SourceAlpha" type="matrix" values="0 0 0 0 0 0 0 0 0 0 0 0 0 0 0 0 0 0 127 0" result="hardAlpha"/>
<feOffset/>
<feGaussianBlur stdDeviation="10"/>
<feComposite in2="hardAlpha" operator="out"/>
<feColorMatrix type="matrix" values="0 0 0 0 0.229167 0 0 0 0 0.229167 0 0 0 0 0.229167 0 0 0 0.1 0"/>
<feBlend mode="normal" in2="BackgroundImageFix" result="effect1_dropShadow_1839_359"/>
<feBlend mode="normal" in="SourceGraphic" in2="effect1_dropShadow_1839_359" result="shape"/>
</filter>
</defs>
</svg>
