<svg width="100" height="100" viewBox="0 0 100 100" fill="none" xmlns="http://www.w3.org/2000/svg">
<circle cx="50" cy="50" r="50" fill="white" fill-opacity="0.25"/>
<circle cx="50" cy="50" r="33" fill="white"/>
<path d="M42.7722 61.7197C43.74 61.7197 44.6682 61.3352 45.3525 60.6508C46.0369 59.9665 46.4214 59.0383 46.4214 58.0705C46.4214 57.1026 46.0369 56.1744 45.3525 55.4901C44.6682 54.8057 43.74 54.4213 42.7722 54.4213C41.8044 54.4213 40.8762 54.8057 40.1918 55.4901C39.5075 56.1744 39.123 57.1026 39.123 58.0705C39.123 59.0383 39.5075 59.9665 40.1918 60.6508C40.8762 61.3352 41.8044 61.7197 42.7722 61.7197ZM61.0181 61.7197C61.986 61.7197 62.9142 61.3352 63.5985 60.6508C64.2829 59.9665 64.6673 59.0383 64.6673 58.0705C64.6673 57.1026 64.2829 56.1744 63.5985 55.4901C62.9142 54.8057 61.986 54.4213 61.0181 54.4213C60.0503 54.4213 59.1221 54.8057 58.4378 55.4901C57.7534 56.1744 57.369 57.1026 57.369 58.0705C57.369 59.0383 57.7534 59.9665 58.4378 60.6508C59.1221 61.3352 60.0503 61.7197 61.0181 61.7197Z" stroke="#62AF2F" stroke-width="2" stroke-miterlimit="1.5" stroke-linecap="round" stroke-linejoin="round"/>
<path d="M46.5126 58.0706H55.5444V39.0948C55.5444 38.8044 55.429 38.526 55.2237 38.3206C55.0184 38.1153 54.7399 38 54.4496 38H30M38.4844 58.0706H34.744C34.6002 58.0706 34.4578 58.0422 34.325 57.9872C34.1922 57.9322 34.0715 57.8516 33.9698 57.7499C33.8682 57.6483 33.7875 57.5276 33.7325 57.3947C33.6775 57.2619 33.6492 57.1196 33.6492 56.9758V48.0353" stroke="#62AF2F" stroke-width="2" stroke-linecap="round"/>
<path d="M31.8246 43.4738H39.123" stroke="#62AF2F" stroke-width="2" stroke-linecap="round" stroke-linejoin="round"/>
<path d="M55.5444 43.4738H65.7804C65.992 43.4738 66.199 43.5352 66.3765 43.6505C66.5539 43.7657 66.6942 43.93 66.7802 44.1233L70.0463 51.4728C70.1085 51.6123 70.1408 51.7634 70.1411 51.9162V56.9758C70.1411 57.1195 70.1128 57.2619 70.0578 57.3947C70.0028 57.5275 69.9222 57.6482 69.8205 57.7499C69.7188 57.8515 69.5982 57.9322 69.4653 57.9872C69.3325 58.0422 69.1902 58.0705 69.0464 58.0705H65.5797M55.5444 58.0705H57.369" stroke="#62AF2F" stroke-width="2" stroke-linecap="round"/>
</svg>
