<svg width="35" height="35" viewBox="0 0 35 35" fill="none" xmlns="http://www.w3.org/2000/svg">
<g id="Group 117">
<path id="Vector" d="M3.41958 17.1173C3.41208 23.8343 8.28736 29.5966 14.8868 30.7286C22.3409 32.008 29.5077 26.9453 30.7696 19.5137C30.907 18.7041 30.9445 17.887 30.987 17.0724C31.052 15.7904 32.3839 15.0458 33.5058 15.678C33.9806 15.9454 34.263 16.3552 34.2555 16.9249C34.1855 22.9347 31.7566 27.76 26.8614 31.2559C17.6381 37.8379 4.54907 33.5748 0.92572 22.8547C-1.8755 14.5785 1.86029 5.56511 9.70421 1.73686C13.3376 -0.0373334 17.1483 -0.427155 21.0915 0.452443C21.4039 0.522411 21.7137 0.582384 21.9936 0.7648C22.7458 1.25708 22.9807 1.95176 22.6433 2.7414C22.2835 3.58351 21.4563 4.00832 20.6317 3.8359C17.2583 3.12372 13.9498 3.27615 10.8737 4.94539C6.91798 7.09441 4.45661 10.3929 3.62949 14.8559C3.48705 15.6255 3.46206 16.4002 3.41958 17.1173Z" fill="#62AF2F"/>
<path id="Vector_2" d="M17.2282 24.0467C16.756 24.0742 16.3711 23.9143 16.0513 23.5944C14.3021 21.8502 12.5454 20.1085 10.8062 18.3518C10.1315 17.6696 10.154 16.6801 10.8187 16.0029C11.4884 15.3207 12.4679 15.2707 13.1701 15.9279C14.417 17.0924 15.649 18.2744 16.8709 19.4638C17.1133 19.6987 17.2357 19.7412 17.4856 19.4538C20.8891 15.5431 24.3225 11.6599 27.7035 7.72917C28.5031 6.7996 29.5626 6.89955 30.3223 7.54675C30.972 8.099 30.9795 9.1935 30.3248 9.94316C28.9579 11.5124 27.5835 13.0767 26.2116 14.641C23.6628 17.5497 21.1115 20.4559 18.5626 23.367C18.2028 23.7793 17.7955 24.0792 17.2282 24.0467Z" fill="#62AF2F"/>
</g>
</svg>
