<svg width="19" height="19" viewBox="0 0 19 19" fill="none" xmlns="http://www.w3.org/2000/svg">
<g id="Group">
<path id="Vector" d="M6.23077 10.1538H4.92308C4.20086 10.1538 3.61539 10.7393 3.61539 11.4615V16.6923C3.61539 17.4145 4.20086 18 4.92308 18H6.23077C6.95299 18 7.53846 17.4145 7.53846 16.6923V11.4615C7.53846 10.7393 6.95299 10.1538 6.23077 10.1538Z" stroke="#62AF2F" stroke-width="1.5" stroke-linecap="round" stroke-linejoin="round"/>
<path id="Vector_2" d="M14.0769 10.1538H12.7692C12.047 10.1538 11.4615 10.7393 11.4615 11.4615V16.6923C11.4615 17.4145 12.047 18 12.7692 18H14.0769C14.7991 18 15.3846 17.4145 15.3846 16.6923V11.4615C15.3846 10.7393 14.7991 10.1538 14.0769 10.1538Z" stroke="#62AF2F" stroke-width="1.5" stroke-linecap="round" stroke-linejoin="round"/>
<path id="Vector_3" d="M1 12.7692V9.5C1 7.24566 1.89553 5.08365 3.48959 3.48959C5.08365 1.89553 7.24566 1 9.5 1C11.7543 1 13.9163 1.89553 15.5104 3.48959C17.1045 5.08365 18 7.24566 18 9.5V12.7692" stroke="#62AF2F" stroke-width="1.5" stroke-linecap="round" stroke-linejoin="round"/>
</g>
</svg>
