<svg width="24" height="20" viewBox="0 0 24 20" fill="none" xmlns="http://www.w3.org/2000/svg">
<path id="Vector" d="M14.9373 0.421375L23.5765 8.98966C23.7107 9.12233 23.8172 9.27997 23.8899 9.45356C23.9626 9.62714 24 9.81324 24 10.0012C24 10.1891 23.9626 10.3752 23.8899 10.5488C23.8172 10.7224 23.7107 10.8801 23.5765 11.0127L14.9373 19.581C14.6669 19.8493 14.3 20 13.9174 20C13.5349 20 13.168 19.8493 12.8975 19.581C12.6271 19.3127 12.4751 18.9489 12.4751 18.5695C12.4751 18.1901 12.6271 17.8262 12.8975 17.5579L19.0781 11.428L1.43986 11.428C1.05798 11.428 0.691751 11.2776 0.421725 11.0098C0.151699 10.742 -4.20558e-07 10.3787 -4.37114e-07 10C-4.53669e-07 9.62126 0.151699 9.25803 0.421725 8.99022C0.691751 8.72241 1.05798 8.57195 1.43986 8.57195L19.0781 8.57195L12.8963 2.44206C12.6258 2.17379 12.4739 1.80993 12.4739 1.43053C12.4739 1.05113 12.6258 0.687271 12.8963 0.418994C13.1668 0.15072 13.5337 1.31577e-06 13.9162 1.29905e-06C14.2988 1.28233e-06 14.6657 0.15072 14.9361 0.418994L14.9373 0.421375Z" fill="white"/>
</svg>
