<svg width="27" height="26" viewBox="0 0 27 26" fill="none" xmlns="http://www.w3.org/2000/svg">
<g id="Group 484">
<path id="Vector" d="M9.91792 0.505828C10.1421 1.11296 10.3575 1.69616 10.5827 2.30492C10.3678 2.38217 10.1633 2.44691 9.96525 2.52797C6.93286 3.76726 4.95696 5.8895 4.47006 9.21023C4.29542 10.4006 4.19967 11.6034 4.10012 12.8035C3.86619 15.6373 3.28354 18.3874 2.19984 21.0237C2.13456 21.1826 2.08015 21.3458 2.02249 21.5079C2.01705 21.5237 2.02194 21.5433 2.02194 21.5901H24.9896C24.9559 21.4954 24.926 21.4062 24.8922 21.3191C24.1921 19.5195 23.561 17.697 23.2814 15.7788C23.091 14.4715 22.9479 13.1566 22.8173 11.8417C22.6813 10.4724 22.6111 9.09381 22.2042 7.76693C21.572 5.70725 20.2054 4.24491 18.3862 3.17971C17.7818 2.82555 17.1186 2.57149 16.45 2.2565C16.6508 1.70432 16.8657 1.11405 17.0974 0.477539C17.5158 0.641835 17.9336 0.782193 18.3318 0.966618C20.5188 1.98068 22.3027 3.45173 23.4658 5.59791C24.0778 6.72676 24.389 7.95734 24.5364 9.22274C24.7083 10.6981 24.8171 12.1806 24.9814 13.6566C25.1822 15.46 25.5336 17.233 26.1533 18.9456C26.3965 19.6174 26.6282 20.2931 26.873 20.9644C27.3414 22.2494 26.4623 23.5252 25.0848 23.5295C22.5012 23.5377 19.9171 23.5339 17.3335 23.5279C17.1306 23.5279 17.0202 23.5807 16.9097 23.7667C16.141 25.0604 14.9953 25.7578 13.4873 25.7578C11.989 25.7578 10.8542 25.0582 10.0871 23.7781C9.97287 23.5872 9.85536 23.5268 9.64265 23.5273C7.06778 23.5339 4.49345 23.5339 1.91858 23.5301C0.99319 23.5284 0.2593 22.9762 0.0498501 22.1265C-0.0524267 21.7098 0.0117683 21.3055 0.159743 20.9019C0.530768 19.8911 0.914306 18.8841 1.23691 17.8575C1.74394 16.2445 1.97461 14.5754 2.14163 12.8976C2.30375 11.2677 2.36141 9.62641 2.71013 8.01719C3.34936 5.0702 5.12452 2.98114 7.66729 1.49215C8.2951 1.12439 8.99526 0.879574 9.66332 0.581448C9.74275 0.546086 9.83088 0.531398 9.91847 0.505828H9.91792Z" fill="#252525"/>
<path id="Vector_2" d="M16.6341 14.2213C16.5617 14.3589 16.5177 14.5238 16.4127 14.6293C15.5384 15.5112 14.6522 16.3811 13.772 17.2569C13.5859 17.4419 13.4189 17.4327 13.235 17.2499C12.3619 16.38 11.4876 15.5101 10.6063 14.6489C10.4099 14.4568 10.4006 14.2365 10.436 13.9982C10.7048 12.185 10.9735 10.3718 11.2472 8.55906C11.4925 6.93406 11.7444 5.3096 11.9925 3.68514C12.0033 3.61387 11.9995 3.53988 12.011 3.46862C12.0752 3.06713 12.2182 2.94526 12.6295 2.94418C13.2187 2.94309 13.8079 2.94309 14.3971 2.94418C14.7931 2.94526 14.9297 3.04428 14.9895 3.42455C15.1473 4.43263 15.292 5.44288 15.4427 6.45205C15.6325 7.72017 15.8229 8.9883 16.0134 10.2564C16.2032 11.5245 16.3936 12.7927 16.5824 14.0608C16.5889 14.1049 16.5835 14.1511 16.5835 14.1968C16.6004 14.205 16.6178 14.2131 16.6346 14.2218L16.6341 14.2213Z" fill="#252525"/>
<path id="Vector_3" d="M13.5426 0.00136811C14.1764 0.00136811 14.8108 -0.00080799 15.4445 0.00245616C15.7171 0.00408824 15.7546 0.0568587 15.6616 0.30983C15.4848 0.793469 15.296 1.2733 15.123 1.75857C15.0523 1.9566 14.9397 2.04038 14.7215 2.03766C13.9158 2.02677 13.1096 2.02732 12.3033 2.03766C12.0879 2.04038 11.9742 1.96421 11.9035 1.76075C11.737 1.28255 11.552 0.811422 11.3752 0.337032C11.2724 0.0617549 11.3121 0.00245616 11.6135 0.00136811C12.2566 -0.00135202 12.8996 0.000824086 13.5426 0.000824086V0.00245616V0.00136811Z" fill="#252525"/>
</g>
</svg>
