<svg width="39" height="40" viewBox="0 0 39 40" fill="none" xmlns="http://www.w3.org/2000/svg">
<path d="M11.8759 7.04134C13.2225 7.04134 14.5638 7.00755 15.902 7.05085C17.2359 7.09415 18.0999 8.4714 17.6288 9.72296C17.5876 9.83386 17.5369 9.94053 17.4915 10.0483C18.7124 11.4561 18.6417 12.3866 17.2232 13.5537C17.5316 14.8612 17.351 15.4252 16.4206 16.1466C16.4723 16.5691 16.5917 16.9736 16.5547 17.3622C16.4586 18.373 15.6274 19.1039 14.5965 19.1176C13.7421 19.1282 12.8845 19.0447 12.0332 19.0912C11.315 19.1313 10.6053 19.3067 9.88919 19.4091C8.83197 19.5601 7.77368 19.6658 6.70695 19.4756C5.78914 19.313 4.99384 18.9117 4.25769 18.3519C4.07814 18.2156 3.81621 18.128 3.58913 18.1216C2.66815 18.0963 1.74611 18.1132 0.824077 18.11C0.224172 18.1079 0.00237638 17.8977 0.00237638 17.3105C-0.000792128 14.3078 -0.000792128 11.3051 0.00237638 8.30241C0.00237638 7.73208 0.229453 7.51028 0.791336 7.50817C1.77886 7.505 2.76638 7.51134 3.75495 7.50289C3.89225 7.50184 4.05596 7.48177 4.16052 7.40572C4.81112 6.93573 5.46384 6.46679 6.08592 5.96088C6.98684 5.2279 7.44838 4.28579 7.39769 3.0976C7.36494 2.32237 7.38712 1.54397 7.39346 0.766632C7.39874 0.201581 7.63427 -0.0159905 8.19826 0.000908224C10.1173 0.0568853 11.8294 1.61157 12.0015 3.52429C12.0818 4.41359 12.0575 5.31345 12.048 6.20803C12.0448 6.49002 11.9339 6.77097 11.8748 7.03923L11.8759 7.04134ZM8.6577 1.36126C8.6577 2.02242 8.65031 2.65295 8.65981 3.28349C8.67882 4.58152 8.23206 5.69684 7.28045 6.56712C6.63196 7.16069 5.91693 7.68455 5.21141 8.21158C4.97694 8.38691 4.87238 8.55167 4.87449 8.85373C4.88822 11.5153 4.88928 14.1768 4.87555 16.8384C4.87344 17.1436 4.98856 17.3158 5.21564 17.4848C6.91185 18.7406 8.75275 18.2927 10.6253 18.0118C10.2715 17.1605 10.4226 16.436 10.9454 15.7769C10.3307 15.0144 10.2758 14.2127 10.6993 13.4101C10.4479 13.109 10.2229 12.8387 9.98636 12.5556C9.76351 12.7014 9.53854 12.8577 9.30619 13.0013C8.85415 13.2801 8.48449 13.2347 8.27642 12.883C8.0768 12.544 8.21516 12.2282 8.62601 11.9304C9.04003 11.6304 9.46356 11.3262 9.80998 10.9555C10.544 10.1697 10.5937 9.39238 10.0476 8.46718C9.76034 7.98028 9.81526 7.85882 10.1469 7.37298C10.4204 6.97164 10.6993 6.5122 10.77 6.04749C10.8735 5.3652 10.8207 4.65334 10.7869 3.95732C10.7257 2.66457 9.91243 1.66755 8.65875 1.36126H8.6577ZM1.29513 8.78825V16.8194H3.59125V8.78825H1.29513ZM14.059 12.4447C14.7835 12.4447 15.507 12.4521 16.2315 12.4426C16.767 12.4352 17.0775 12.15 17.0648 11.7054C17.0521 11.2798 16.7385 11.0062 16.2294 11.0052C14.8078 10.9999 13.3862 10.9999 11.9646 11.0052C11.4523 11.0073 11.1439 11.2787 11.1334 11.7075C11.1217 12.1543 11.4291 12.4363 11.9667 12.4426C12.6638 12.4521 13.3619 12.4447 14.06 12.4447H14.059ZM14.1128 9.73669C14.6515 9.73669 15.1901 9.74409 15.7288 9.73458C16.1893 9.72613 16.505 9.42301 16.5008 9.01638C16.4966 8.60976 16.1797 8.30875 15.7171 8.30558C14.6399 8.29819 13.5626 8.29819 12.4863 8.30558C12.0216 8.30875 11.7048 8.60237 11.6952 9.00899C11.6857 9.42829 12.0089 9.72824 12.4979 9.73564C13.0366 9.74303 13.5752 9.73775 14.1139 9.73669H14.1128ZM13.8953 13.7121C13.421 13.7121 12.9468 13.7016 12.4726 13.7153C12.0015 13.729 11.6921 14.0258 11.6931 14.4335C11.6942 14.8391 12.0036 15.1464 12.4758 15.1538C13.4242 15.1686 14.3726 15.1675 15.3211 15.1538C15.8196 15.1464 16.1269 14.8391 16.1153 14.4102C16.1037 13.9962 15.8059 13.7259 15.3179 13.7142C14.8437 13.7026 14.3695 13.7121 13.8953 13.7121ZM13.5425 16.4265C13.1623 16.4265 12.781 16.4149 12.4008 16.4296C12.0068 16.4444 11.7217 16.7233 11.6942 17.0876C11.6667 17.4584 11.9466 17.828 12.3427 17.8428C13.1158 17.8713 13.891 17.8703 14.6641 17.8428C15.0444 17.8291 15.319 17.4816 15.3137 17.1246C15.3084 16.7465 15.0137 16.4455 14.6039 16.4286C14.2501 16.4138 13.8952 16.4254 13.5414 16.4254L13.5425 16.4265Z" fill="white"/>
<path d="M31.5967 22.2438C31.6452 23.1352 31.659 23.9791 31.7456 24.8155C31.8364 25.6953 31.5734 26.3829 30.9387 27.0124C27.1048 30.8157 23.292 34.6401 19.4803 38.4644C18.8856 39.0601 18.215 39.3812 17.3838 39.1214C17.0701 39.0232 16.7501 38.8362 16.5166 38.6049C13.7949 35.9064 11.0848 33.1963 8.38096 30.4798C7.57193 29.6665 7.57299 28.4963 8.38202 27.6852C12.3258 23.7309 16.278 19.785 20.2259 15.836C20.584 15.4779 21.0096 15.2287 21.5229 15.2551C23.9025 15.3744 26.282 15.4959 28.6594 15.6575C29.4146 15.7092 30.0768 16.0599 30.5785 16.6461C30.7338 16.8277 30.8795 16.8372 31.0939 16.7982C32.8588 16.476 34.6289 16.3989 36.3811 16.8531C36.8701 16.9798 37.3602 17.1805 37.7911 17.4435C38.879 18.1068 39.0057 19.2611 38.1248 20.18C37.3792 20.9563 36.4223 21.3946 35.4094 21.6344C34.2762 21.9037 33.1091 22.0304 31.9558 22.2174C31.8544 22.2332 31.7509 22.2332 31.5956 22.2448L31.5967 22.2438ZM30.2701 20.9426C30.2205 20.1673 30.2004 19.4576 30.1244 18.7542C29.9902 17.5216 29.3618 16.9228 28.1166 16.8489C26.0391 16.7253 23.9605 16.6323 21.882 16.513C21.5092 16.4919 21.2356 16.6028 20.9716 16.8679C17.1303 20.7208 13.2805 24.5663 9.43396 28.4139C8.91433 28.9336 8.91433 29.2261 9.43291 29.7447C12.0406 32.3534 14.6493 34.9611 17.2581 37.5688C17.7735 38.0842 18.065 38.0821 18.5867 37.5614C20.4034 35.7459 22.22 33.9282 24.0366 32.1116C26.0676 30.0806 28.1018 28.0538 30.1222 26.0122C30.2944 25.8379 30.4813 25.5707 30.4782 25.35C30.4634 24.3118 30.3842 23.2746 30.3282 22.2427C29.7146 22.1213 29.1168 22.0283 28.5348 21.8762C28.2549 21.8034 28.0257 21.7907 27.749 21.9005C26.8809 22.2438 25.9081 21.9396 25.3589 21.1908C24.8203 20.4578 24.8234 19.4513 25.3652 18.7204C25.9176 17.9747 26.8935 17.6875 27.7638 18.0128C28.6383 18.3402 29.1791 19.1872 29.1041 20.1209C29.0882 20.312 29.0502 20.5021 29.0175 20.7261C29.4252 20.7958 29.8107 20.8612 30.2701 20.9405V20.9426ZM31.547 21.0038C32.2525 20.9278 32.9211 20.8887 33.5791 20.7778C34.7641 20.5782 35.9238 20.2804 36.9198 19.5622C37.639 19.0425 37.6126 18.6232 36.774 18.3317C36.0389 18.0772 35.2531 17.9283 34.4768 17.8374C33.4186 17.7139 32.3613 17.8459 31.3463 18.0392C31.4139 19.0277 31.4773 19.9698 31.5481 21.0038H31.547Z" fill="white"/>
<path d="M19.7866 21.2996C23.0628 21.3112 25.7011 23.9696 25.6906 27.249C25.68 30.5263 23.0153 33.1646 19.738 33.1435C16.4765 33.1213 13.8403 30.4735 13.8414 27.2205C13.8424 23.959 16.524 21.288 19.7866 21.2996ZM19.7887 31.8782C22.3583 31.8698 24.4274 29.7902 24.4263 27.2173C24.4242 24.6529 22.3372 22.5638 19.776 22.5638C17.2063 22.5638 15.0866 24.692 15.1077 27.2511C15.1288 29.8144 17.2264 31.8867 19.7897 31.8782H19.7887Z" fill="white"/>
<path d="M20.5977 24.2537C20.6642 24.2653 20.8501 24.2811 21.0233 24.3339C21.3275 24.4269 21.5926 24.5716 21.9221 24.3012C22.0362 24.2072 22.4302 24.3308 22.6086 24.4691C22.8484 24.6561 22.8421 24.9814 22.6424 25.2158C22.4819 25.4038 22.5051 25.5443 22.5928 25.7418C22.8104 26.2308 22.8178 26.7378 22.6604 27.2458C22.5242 27.6873 22.201 27.9006 21.845 27.7961C21.4722 27.6862 21.3265 27.3641 21.4405 26.9047C21.5842 26.3238 21.3423 25.7862 20.7857 25.6024C20.5808 25.5348 20.2819 25.5665 20.0939 25.6732C19.8341 25.8189 19.8996 26.1157 20.0189 26.347C20.1636 26.6269 20.3833 26.8719 20.4974 27.1613C20.6885 27.6419 20.9494 28.1446 20.9536 28.641C20.9652 29.9855 19.5986 30.7238 18.3322 30.107C18.103 29.995 17.9435 29.9369 17.707 30.1249C17.4693 30.3129 17.1715 30.2538 16.956 30.0277C16.7289 29.7891 16.6888 29.4923 16.9011 29.2398C17.0595 29.0518 17.0363 28.923 16.9444 28.7213C16.6508 28.0749 16.6423 27.4211 16.9856 26.7842C17.1715 26.4399 17.4957 26.3185 17.8105 26.4568C18.1484 26.6058 18.3048 26.9532 18.1146 27.3144C17.6922 28.1161 18.5149 28.9357 19.1539 29.0603C19.4803 29.1237 19.7644 28.8649 19.6894 28.5164C19.626 28.2175 19.456 27.9397 19.3218 27.6577C19.1254 27.2447 18.8455 26.855 18.7336 26.422C18.4378 25.2729 19.2933 24.2452 20.5977 24.2547V24.2537Z" fill="white"/>
</svg>
