<svg width="34" height="44" viewBox="0 0 34 44" fill="none" xmlns="http://www.w3.org/2000/svg">
<path d="M5.7466 44C5.15494 43.6949 4.98233 43.1891 5.01413 42.5491C5.04593 41.9218 5.02094 41.2909 5.02094 40.6624C5.02094 39.6336 5.22649 39.3779 6.22356 39.1783C6.31782 38.5188 6.17019 37.9614 5.65348 37.49C4.89716 36.7995 4.19421 36.0506 3.43789 35.3613C1.93092 33.9884 1.17119 32.2795 0.988353 30.2494C0.696498 26.9886 0.34332 23.7348 0.0151256 20.4786C-0.0541472 19.7893 0.110518 19.1699 0.592021 18.663C1.22229 18.0012 2.1728 17.9588 2.77355 18.6446C3.10742 19.0266 3.36634 19.5209 3.52079 20.0095C4.01592 21.5728 4.44972 23.1556 4.9017 24.7326C4.96416 24.9517 5.04138 25.0973 5.30258 25.1489C5.52856 25.1937 5.76818 25.3141 5.93966 25.4712C7.58972 26.9726 9.32267 28.389 10.7263 30.1473C12.2219 32.0202 12.9589 34.1639 12.9703 36.5644C12.9748 37.4349 12.9703 38.3055 12.9703 39.1703C14.0207 39.3721 14.2251 39.621 14.2251 40.6705C14.2251 41.3139 14.2013 41.9585 14.232 42.6008C14.2615 43.2362 14.0525 43.7087 13.4813 43.9989H5.7466V44ZM11.6109 39.1943C11.6109 38.2504 11.6212 37.3512 11.6087 36.4532C11.5814 34.3933 11.0034 32.4939 9.6202 30.9777C8.23361 29.4557 6.69144 28.0782 5.21627 26.6388C5.1663 26.5895 5.10611 26.5287 5.04365 26.5184C4.92555 26.5 4.76656 26.4702 4.69161 26.5298C4.6178 26.5895 4.57351 26.7799 4.61325 26.8693C4.71092 27.085 4.84151 27.296 4.99823 27.4726C6.11568 28.7285 7.24449 29.9718 8.36421 31.2254C8.68218 31.5821 8.68105 31.979 8.38806 32.2554C8.10415 32.5237 7.68056 32.4939 7.37395 32.1544C6.1611 30.8137 4.94372 29.4752 3.75132 28.1149C3.07789 27.3465 3.05178 26.5207 3.58665 25.6742C3.6457 25.5802 3.68545 25.4322 3.65706 25.3313C3.1642 23.6029 2.6668 21.8744 2.14782 20.1529C2.07628 19.9166 1.89231 19.7147 1.75263 19.4842C1.35856 19.7686 1.34039 20.0841 1.3756 20.4247C1.70379 23.6671 2.04789 26.9083 2.34883 30.1542C2.50213 31.8104 3.11196 33.2085 4.34525 34.3302C4.99823 34.9231 5.58875 35.5861 6.25536 36.1618C7.16272 36.944 7.70214 37.8696 7.62038 39.1049C7.61924 39.1278 7.64536 39.1519 7.67034 39.1943H11.6087H11.6109ZM12.8454 40.6131H6.40867V42.6042H12.8454V40.6131Z" fill="white"/>
<path d="M19.7726 44C19.1764 43.7052 18.9856 43.2086 19.0186 42.5617C19.0504 41.9343 19.0254 41.3035 19.0254 40.675C19.0254 39.6255 19.2343 39.3709 20.2825 39.1748C20.2825 38.4408 20.3007 37.6987 20.2791 36.9578C20.1951 33.9482 21.2353 31.3768 23.3067 29.2503C24.5559 27.9669 25.897 26.7752 27.2109 25.5572C27.4029 25.3794 27.6572 25.2292 27.9082 25.1695C28.2126 25.0961 28.2977 24.9206 28.3727 24.6557C28.8088 23.1188 29.2562 21.5853 29.7116 20.0542C29.8002 19.7548 29.9103 19.4566 30.0568 19.1825C30.4543 18.4393 31.122 18.0631 31.7761 18.1801C32.4904 18.3085 33.1287 18.9394 33.19 19.7525C33.2422 20.4568 33.1695 21.177 33.0991 21.8847C32.8084 24.8289 32.4961 27.7696 32.1963 30.7127C32.026 32.3838 31.3605 33.8163 30.1761 34.9942C29.3493 35.8166 28.5226 36.6424 27.6607 37.4269C27.1371 37.904 26.9191 38.4499 27.0281 39.1759C27.1462 39.2012 27.2791 39.2264 27.412 39.2574C27.8628 39.364 28.1876 39.6817 28.2012 40.1451C28.2296 41.1166 28.2171 42.0892 28.208 43.0606C28.2035 43.5366 27.8469 43.7671 27.5085 44H19.7726ZM31.4638 19.4853C31.3185 19.7755 31.1345 20.0416 31.0459 20.3375C30.5554 21.9765 30.0841 23.6223 29.6173 25.2693C29.5833 25.3874 29.5901 25.556 29.6503 25.657C30.192 26.5676 30.1499 27.4416 29.4606 28.2135C28.2852 29.529 27.0928 30.8297 25.8993 32.1303C25.7892 32.2507 25.6381 32.362 25.4859 32.4056C25.1873 32.4904 24.9204 32.3952 24.7546 32.1154C24.5706 31.8046 24.6308 31.5155 24.8659 31.2529C25.7608 30.2573 26.6545 29.263 27.5482 28.2663C27.8617 27.9164 28.2023 27.585 28.4681 27.2019C28.5828 27.0356 28.5408 26.7592 28.5703 26.5332C28.3727 26.586 28.1217 26.5791 27.9854 26.7018C26.8782 27.702 25.7948 28.7319 24.6978 29.7447C21.9155 32.3115 21.3069 35.5826 21.7191 39.184H25.6109C25.7524 37.9277 26.2866 36.8576 27.2132 35.9737C27.9116 35.305 28.6078 34.6329 29.288 33.9448C30.0579 33.166 30.5803 32.2347 30.7473 31.1451C30.9119 30.0727 31.0096 28.99 31.122 27.9107C31.3844 25.3806 31.6399 22.8504 31.8897 20.3191C31.9204 20.014 31.8693 19.7181 31.4661 19.4864L31.4638 19.4853ZM20.4074 40.6108V42.6018H26.8328V40.6108H20.4074Z" fill="white"/>
<path d="M9.53616 16.4196C9.2216 16.3336 8.9604 16.2751 8.70716 16.1913C7.87588 15.9161 7.44208 15.1086 7.67034 14.2542C7.77709 13.855 7.89065 13.4559 8.03146 13.0671C8.13254 12.7884 8.09392 12.59 7.86566 12.3915C7.54428 12.1117 7.24562 11.8055 6.94808 11.4981C6.26785 10.7973 6.27125 9.85796 6.95717 9.16979C7.24902 8.87732 7.54542 8.58944 7.85885 8.32335C8.06553 8.14902 8.10074 7.96436 8.02465 7.71892C7.89406 7.29684 7.77141 6.87133 7.66125 6.44352C7.4205 5.50991 7.90768 4.67379 8.83094 4.43523C9.20115 4.34003 9.57023 4.23108 9.94726 4.17946C10.2891 4.13244 10.4265 3.95122 10.4889 3.63581C10.5662 3.24471 10.6695 2.85704 10.7706 2.47053C11.0238 1.51054 11.8528 1.03112 12.7965 1.29262C12.8647 1.31097 12.9396 1.319 12.9998 1.35226C13.9503 1.88329 14.6215 1.58279 15.2949 0.76388C16.1353 -0.260336 17.1278 -0.253454 17.9454 0.777644C18.5802 1.57821 19.2003 1.80415 20.1326 1.37635C20.8186 1.06208 21.5567 1.08617 22.0677 1.73763C22.3176 2.05648 22.5061 2.4969 22.5413 2.89948C22.6196 3.78148 23.0205 4.23681 23.895 4.28498C24.0744 4.2953 24.2515 4.36986 24.4287 4.42032C25.3565 4.68182 25.8221 5.50418 25.5677 6.44123C25.4519 6.86789 25.302 7.28652 25.2055 7.71662C25.1748 7.85196 25.2214 8.05726 25.3122 8.15819C25.6256 8.50801 25.9788 8.81883 26.3059 9.15603C26.985 9.85452 26.9793 10.7927 26.2911 11.4832C26.0004 11.7756 25.704 12.0658 25.3906 12.3319C25.1839 12.5074 25.1521 12.6897 25.2282 12.9352C25.352 13.3297 25.4598 13.73 25.5666 14.1292C25.8425 15.1557 25.3883 15.9516 24.373 16.2235C24.1686 16.2785 23.9631 16.3267 23.7155 16.3886C23.7496 16.5446 23.7757 16.6914 23.8143 16.8371C24.3674 18.9337 24.9238 21.0303 25.4769 23.128C25.6245 23.6854 25.5212 24.0651 25.1668 24.3186C24.7955 24.5835 24.4423 24.5617 23.9495 24.236C23.4657 23.9171 22.9853 23.5937 22.4629 23.2462C22.179 23.815 21.9156 24.3472 21.6487 24.8771C21.3898 25.3898 21.0718 25.5985 20.621 25.5378C20.1315 25.4712 19.9021 25.1386 19.7829 24.6879C19.3593 23.073 18.93 21.4592 18.5019 19.8455C18.4769 19.7503 18.444 19.6563 18.3917 19.4854C17.8614 20.0175 17.4185 20.6266 16.6043 20.6105C15.7934 20.5944 15.3869 19.9648 14.86 19.428C14.4466 20.989 14.048 22.4903 13.6494 23.9928C13.5722 24.2819 13.4972 24.572 13.4109 24.8599C13.2928 25.2545 13.0259 25.4907 12.6216 25.5378C12.1958 25.5871 11.8755 25.4001 11.6802 25.0205C11.3872 24.4516 11.1056 23.8758 10.7933 23.2508C10.2913 23.5834 9.81098 23.9022 9.33062 24.2188C8.80823 24.5629 8.44937 24.595 8.07802 24.3105C7.65103 23.9836 7.65103 23.5558 7.78049 23.0741C8.33808 21.0073 8.87977 18.9371 9.42714 16.868C9.46235 16.7327 9.49187 16.5962 9.53389 16.4196H9.53616ZM12.3139 2.58178C12.2469 2.6655 12.114 2.76414 12.0765 2.89145C11.9459 3.32844 11.8483 3.77574 11.737 4.21846C11.5689 4.89286 11.1522 5.3092 10.4765 5.45945C10.104 5.54317 9.7349 5.64525 9.36014 5.71636C9.0274 5.77944 8.89454 5.91937 9.02059 6.27607C9.15686 6.66603 9.24771 7.07204 9.36128 7.47003C9.5566 8.15246 9.41011 8.73854 8.88772 9.2237C8.58565 9.5047 8.29493 9.79831 7.98718 10.0724C7.78049 10.2559 7.77254 10.4096 7.97809 10.6012C8.31083 10.912 8.63107 11.2366 8.95359 11.5577C9.41465 12.0176 9.58727 12.5613 9.40216 13.2013C9.27951 13.6256 9.15687 14.0512 9.01832 14.4709C8.93088 14.7359 9.00469 14.8735 9.27497 14.9343C9.71673 15.0352 10.1551 15.1465 10.5923 15.2646C11.2351 15.4378 11.6507 15.8427 11.8029 16.5079C11.8948 16.9116 12.0005 17.3119 12.0811 17.7179C12.1413 18.0219 12.2673 18.1331 12.5819 18.023C12.9691 17.8877 13.3712 17.7994 13.7629 17.6766C14.4738 17.4541 15.0712 17.625 15.5709 18.1756C15.8389 18.4715 16.1171 18.7571 16.3794 19.0564C16.5634 19.2663 16.7178 19.2629 16.9063 19.0587C17.2345 18.7031 17.5718 18.3556 17.917 18.0161C18.3463 17.5941 18.8573 17.4518 19.441 17.6193C19.876 17.7443 20.3143 17.8613 20.7402 18.0127C21.0218 18.1136 21.1343 18.0035 21.1967 17.7523C21.3125 17.2809 21.4261 16.8096 21.5533 16.3405C21.7134 15.7544 22.0916 15.3782 22.6742 15.2245C23.1114 15.1086 23.5509 14.9951 23.9949 14.9079C24.2822 14.8506 24.3344 14.6969 24.2618 14.4469C24.1346 14.0087 24.0028 13.5706 23.8859 13.129C23.7144 12.4799 23.8575 11.9133 24.3503 11.4488C24.6501 11.1655 24.9431 10.873 25.2554 10.6046C25.5041 10.3913 25.4803 10.2204 25.2509 10.0116C24.925 9.71459 24.6138 9.40147 24.3026 9.08836C23.8438 8.62614 23.6746 8.08135 23.862 7.44136C23.9824 7.03075 24.0914 6.61556 24.2345 6.21299C24.3458 5.89872 24.2402 5.76912 23.9381 5.7026C23.4827 5.60281 23.0296 5.48697 22.581 5.35737C22.0053 5.19106 21.6305 4.80684 21.4795 4.21731C21.3773 3.81588 21.2785 3.41331 21.2058 3.00615C21.1411 2.64257 20.9821 2.51984 20.6198 2.64601C20.2189 2.78479 19.8067 2.89145 19.3968 3.00041C18.771 3.16557 18.2203 3.03252 17.7671 2.54966C17.4651 2.22737 17.1607 1.90853 16.8666 1.57935C16.6951 1.38782 16.5486 1.38208 16.3726 1.57362C16.0842 1.88788 15.7775 2.18723 15.4891 2.50149C14.9724 3.06235 14.3648 3.2298 13.6403 2.98435C13.2383 2.84787 12.8283 2.73547 12.3184 2.58178H12.3139ZM19.7374 19.1837C20.1111 20.5876 20.4688 21.9352 20.8583 23.401C21.0752 22.9663 21.2296 22.6486 21.3909 22.3344C21.7475 21.6405 22.2733 21.4971 22.9297 21.9146C23.2317 22.1061 23.5281 22.3057 23.9267 22.5672C23.4816 20.8915 23.0694 19.342 22.6344 17.7053C22.0325 19.4326 21.7906 19.553 19.7363 19.1849L19.7374 19.1837ZM12.3991 23.4056C12.7897 21.9295 13.1452 20.5818 13.5154 19.1803C12.8351 19.3695 12.248 19.6035 11.6223 19.2823C10.9852 18.9555 10.8205 18.343 10.6445 17.6101C10.1948 19.311 9.77691 20.8881 9.33175 22.5718C9.7349 22.3045 10.0381 22.0981 10.3459 21.9008C10.9716 21.5005 11.5121 21.6485 11.8574 22.316C12.0243 22.6383 12.181 22.9652 12.4002 23.4044L12.3991 23.4056Z" fill="white"/>
<path d="M11.6087 42.3347C11.2055 42.337 10.9 42.0388 10.9023 41.6431C10.9046 41.2611 11.1851 40.9836 11.578 40.9732C11.9959 40.9618 12.2968 41.2359 12.3037 41.635C12.3105 42.0307 12.0107 42.3335 11.6075 42.3358L11.6087 42.3347Z" fill="white"/>
<path d="M22.3528 41.6316C22.3607 42.0273 22.0609 42.3301 21.6566 42.3347C21.2546 42.3381 20.948 42.0399 20.9503 41.6454C20.9514 41.2623 21.2296 40.9847 21.6237 40.9732C22.0416 40.9618 22.3448 41.2359 22.3528 41.6327V41.6316Z" fill="white"/>
<path d="M16.6474 4.76209C19.6784 4.76668 22.1541 7.28192 22.145 10.3488C22.1359 13.4031 19.6228 15.9229 16.6054 15.9035C13.5699 15.884 11.0988 13.3676 11.1079 10.3064C11.117 7.24636 13.604 4.7575 16.6474 4.76209ZM20.7845 10.3224C20.7811 8.00907 18.9085 6.13039 16.6111 6.13612C14.3217 6.14186 12.4559 8.04119 12.4683 10.3534C12.4808 12.6381 14.3546 14.5225 16.6202 14.5294C18.896 14.5363 20.7879 12.6255 20.7834 10.3224H20.7845Z" fill="white"/>
<path d="M16.2636 10.8763C17.0585 10.0746 17.7785 9.34746 18.4996 8.62145C18.5996 8.52052 18.695 8.41386 18.8051 8.32439C19.1072 8.07666 19.4695 8.08813 19.7261 8.34275C19.9873 8.6031 20.0316 8.98847 19.7624 9.26718C18.7654 10.3006 17.7558 11.3213 16.7326 12.3295C16.451 12.6071 16.0955 12.5807 15.815 12.3054C15.0439 11.5484 14.2842 10.78 13.5324 10.0035C13.2383 9.69957 13.2463 9.32108 13.5074 9.04238C13.78 8.75106 14.1718 8.7327 14.4886 9.04582C15.0826 9.6342 15.6538 10.2444 16.2625 10.8752L16.2636 10.8763Z" fill="white"/>
</svg>
