<svg width="43" height="26" viewBox="0 0 43 26" fill="none" xmlns="http://www.w3.org/2000/svg">
<path d="M13.7722 24.7197C14.74 24.7197 15.6682 24.3352 16.3525 23.6508C17.0369 22.9665 17.4214 22.0383 17.4214 21.0705C17.4214 20.1026 17.0369 19.1744 16.3525 18.4901C15.6682 17.8057 14.74 17.4213 13.7722 17.4213C12.8044 17.4213 11.8762 17.8057 11.1918 18.4901C10.5075 19.1744 10.123 20.1026 10.123 21.0705C10.123 22.0383 10.5075 22.9665 11.1918 23.6508C11.8762 24.3352 12.8044 24.7197 13.7722 24.7197ZM32.0181 24.7197C32.986 24.7197 33.9142 24.3352 34.5985 23.6508C35.2829 22.9665 35.6673 22.0383 35.6673 21.0705C35.6673 20.1026 35.2829 19.1744 34.5985 18.4901C33.9142 17.8057 32.986 17.4213 32.0181 17.4213C31.0503 17.4213 30.1221 17.8057 29.4378 18.4901C28.7534 19.1744 28.369 20.1026 28.369 21.0705C28.369 22.0383 28.7534 22.9665 29.4378 23.6508C30.1221 24.3352 31.0503 24.7197 32.0181 24.7197Z" stroke="#62AF2F" stroke-width="2" stroke-miterlimit="1.5" stroke-linecap="round" stroke-linejoin="round"/>
<path d="M17.5126 21.0706H26.5444V2.09476C26.5444 1.80441 26.429 1.52595 26.2237 1.32065C26.0184 1.11534 25.7399 1 25.4496 1H1M9.48438 21.0706H5.74395C5.60019 21.0706 5.45783 21.0422 5.32501 20.9872C5.19218 20.9322 5.0715 20.8516 4.96984 20.7499C4.86818 20.6483 4.78754 20.5276 4.73253 20.3947C4.67751 20.2619 4.64919 20.1196 4.64919 19.9758V11.0353" stroke="#62AF2F" stroke-width="2" stroke-linecap="round"/>
<path d="M2.82458 6.47375H10.123" stroke="#62AF2F" stroke-width="2" stroke-linecap="round" stroke-linejoin="round"/>
<path d="M26.5444 6.47375H36.7804C36.992 6.47381 37.199 6.53519 37.3765 6.65047C37.5539 6.76575 37.6942 6.92999 37.7802 7.12331L41.0463 14.4728C41.1085 14.6123 41.1408 14.7634 41.1411 14.9162V19.9758C41.1411 20.1195 41.1128 20.2619 41.0578 20.3947C41.0028 20.5275 40.9222 20.6482 40.8205 20.7499C40.7188 20.8515 40.5982 20.9322 40.4653 20.9872C40.3325 21.0422 40.1902 21.0705 40.0464 21.0705H36.5797M26.5444 21.0705H28.369" stroke="#62AF2F" stroke-width="2" stroke-linecap="round"/>
</svg>
