<svg width="35" height="36" viewBox="0 0 35 36" fill="none" xmlns="http://www.w3.org/2000/svg">
<path id="Vector" d="M1.68423 1.78452L3.96133 3.39367L4.17322 0.312802H6.54072V3.13311C7.37133 2.90119 8.04372 2.71508 8.71611 2.5261L8.87715 2.92123C8.65679 3.11021 8.40534 3.27341 8.22453 3.49675C7.7047 4.13525 7.16509 4.76803 6.74131 5.46953C6.6283 5.65851 6.90235 6.09086 7.00123 6.41155C7.24984 6.24548 7.59734 6.13667 7.73013 5.90475C8.71329 4.18107 10.1626 3.3364 12.1205 3.26482C12.4651 3.25337 12.8804 2.92409 13.1206 2.62632C15.8667 -0.821049 19.6326 -0.634937 21.8786 3.08157C22.26 3.71149 25.0994 4.68786 25.8876 4.46167C28.919 3.59123 31.1792 5.38936 30.9305 8.56758C30.8599 9.46378 31.0294 10.0164 31.7244 10.6291C33.2924 12.0121 33.3319 14.4602 31.9307 16.0178C31.6538 16.327 31.2865 16.5561 30.9616 16.8224L31.0774 17.1946C31.7809 17.2375 32.4844 17.3263 33.185 17.3091C33.9789 17.2891 34.4083 17.5067 34.4055 18.4201C34.3829 23.6197 34.3801 28.8194 34.4083 34.022C34.4168 35.319 33.5636 35.1644 32.7697 35.1644C24.0597 35.1673 15.3525 35.1673 6.64243 35.1673C4.89929 35.1673 3.15898 35.1358 1.41866 35.1759C0.492004 35.1988 0.0484496 34.9182 0.0540999 33.8845C0.085177 28.7793 0.0654007 23.6741 0.0738762 18.5689C0.0738762 18.2425 0.0654007 17.6957 0.226436 17.6241C1.6362 16.9913 0.839501 15.9691 0.701067 15.0872C0.556983 14.1509 0.268814 13.2318 0.164282 12.2927C-0.121061 9.68711 0.754746 7.97202 3.08552 6.83531C4.04891 6.36573 4.14214 5.81885 3.62231 5.0744C2.93296 4.08658 2.15321 3.16461 1.41019 2.21687L1.68141 1.78452H1.68423ZM33.4704 18.2626H1.01184V23.0757H22.907L22.9353 23.6054C22.4776 23.6827 22.0171 23.8259 21.5594 23.8288C18.2624 23.8488 14.9654 23.8402 11.6713 23.8402C8.51553 23.8402 5.3598 23.8202 2.20689 23.866C1.78594 23.8717 1.02879 24.1895 1.01184 24.41C0.89883 25.7586 0.955334 27.1244 0.955334 28.43C3.26068 28.8309 5.40782 28.1924 7.43631 28.8309V29.4207H1.04009V34.168H33.4337V29.5209C32.7867 29.5209 32.2358 29.5209 31.682 29.5209C25.5118 29.5209 19.3445 29.5266 13.1743 29.5095C12.6064 29.5095 12.0385 29.352 11.4707 29.2689L11.53 28.6362H33.428V23.8373C32.2556 23.8373 31.1848 23.8373 30.1141 23.8373C28.4434 23.8373 27.368 23.5367 26.8877 22.9354H33.4732V18.2597L33.4704 18.2626ZM21.2402 3.84034C20.5452 2.14815 19.3501 1.2634 17.6578 1.14887C15.9655 1.03434 14.5868 1.70721 13.7958 3.25051C13.4229 3.97491 12.9906 4.12666 12.2532 4.12666C10.3067 4.12666 9.07774 5.03145 8.34884 6.92407L9.41959 7.6857C11.2983 6.66638 12.968 5.75872 14.6349 4.85393C14.2987 5.86466 14.228 7.0071 12.7392 6.95843C11.5441 6.92121 10.2135 8.12377 10.3547 8.95985C10.561 10.1825 10.8774 11.3879 11.1882 12.7794C12.3691 10.8439 13.9145 9.54395 16.2311 9.7587C18.5647 9.9763 19.8389 11.5912 20.8475 13.6298C21.0424 12.4559 21.0706 11.3793 21.0311 10.3056C21 9.46378 21.2938 9.11446 22.1668 9.09442C22.5652 9.08583 23.2517 8.71074 23.2941 8.42442C23.5144 6.91548 24.4524 7.5683 25.2095 7.66565C26.2662 7.80023 25.9554 8.52177 25.8367 9.17745C25.6361 10.2855 25.461 11.3965 25.2773 12.5074L25.6107 12.6076C26.0288 12.0064 26.447 11.4051 26.9838 10.6349C27.8624 11.2419 28.6873 11.8088 29.6281 12.4559C29.0066 13.332 28.4755 14.0479 27.981 14.7866C27.4951 15.511 27.0431 16.2583 26.4724 17.1602C27.0064 17.1917 27.2974 17.2891 27.5318 17.2089C28.2918 16.9483 29.0094 16.5503 29.7807 16.3356C31.069 15.9748 31.7894 15.1044 32.0324 13.8532C32.2753 12.599 31.7046 11.6284 30.7102 10.9069C30.3457 10.6434 29.9417 10.4373 29.5631 10.2111C29.6197 9.97058 29.6225 9.81882 29.6903 9.70429C30.4559 8.39292 30.374 7.13309 29.3654 6.02214C28.3398 4.89115 27.1109 4.84821 25.752 5.46094C25.4271 5.60697 24.879 5.46094 24.523 5.27769C22.0256 3.97205 19.6213 5.07727 19.0026 7.83745C18.932 8.15241 18.7653 8.4416 18.5647 8.9398C17.7934 7.12163 18.6523 5.60411 21.2402 3.83747V3.84034ZM5.001 9.89613L5.00947 10.5805H0.653039C1.16157 12.8825 1.5571 14.8209 2.04868 16.7336C2.11366 16.9913 2.67022 17.2604 3.01207 17.2776C4.32578 17.3406 5.64514 17.3377 6.95885 17.2805C7.3233 17.2633 7.84878 17.0715 8.00417 16.7909C8.51553 15.8689 8.8941 14.8725 9.32353 13.9018C7.83372 13.7052 6.95037 13.333 6.67351 12.7852C7.50129 12.7852 8.23301 12.7565 8.95908 12.7937C9.80664 12.8367 10.1146 12.4559 10.1428 11.6141C10.2248 9.28626 8.25561 7.25048 5.75532 7.14454C3.76639 7.0615 2.16169 8.00352 1.61078 9.6413L5.001 9.89613ZM16.5814 17.186C15.9571 14.6892 14.6094 13.6642 12.3776 13.7902C10.5299 13.8961 9.26985 15.1187 8.97603 17.186H16.5786H16.5814ZM19.5422 13.919C19.1184 11.9462 17.9234 10.7752 16.1972 10.6263C14.4625 10.4774 13.2562 11.1531 12.7335 12.3557C14.2535 13.249 15.7423 14.1223 17.3018 15.0357L19.5422 13.9161V13.919ZM28.3455 12.7766C27.577 11.783 27.0346 11.9233 26.5148 12.8739C25.9469 13.9047 25.2943 14.8897 24.7293 15.9204C24.5343 16.2783 24.4891 16.7221 24.3761 17.1287L24.8055 17.3721C26.4272 16.2125 27.1165 14.2655 28.3483 12.7766H28.3455ZM20.9266 17.2977C21.3164 16.098 20.7881 15.3363 19.9406 15.196C19.319 15.0929 18.4206 15.4709 17.9601 15.9491C17.3442 16.5847 17.5335 17.2748 18.6099 17.2948C19.3473 17.3091 20.0875 17.2948 20.9266 17.2948V17.2977ZM22.1018 17.1946L22.7432 17.1574C22.7432 14.9698 22.7516 12.7794 22.7234 10.5919C22.7234 10.443 22.4409 10.297 22.2911 10.151C22.1442 10.4029 21.8758 10.6492 21.8702 10.904C21.8278 12.327 21.8193 13.7558 21.856 15.1788C21.873 15.8517 22.0171 16.5217 22.1018 17.1917V17.1946ZM25.0542 8.56472L24.1755 8.40437L23.4692 13.7071L24.0964 13.8045C24.4157 12.0579 24.7349 10.3113 25.0542 8.56472ZM5.12248 6.13953L5.53213 6.15671V1.21759L5.12248 1.21187V6.13953Z" fill="white"/>
</svg>
