<svg width="25" height="20" viewBox="0 0 25 20" fill="none" xmlns="http://www.w3.org/2000/svg">
<g id="Group 512">
<path id="Vector" d="M24.4377 4.73278C24.4377 5.4836 24.4486 6.23534 24.4349 6.98616C24.4067 8.56709 23.8579 9.94208 22.7376 11.0665C20.0011 13.811 17.2573 16.5482 14.5163 19.2882C13.5755 20.2286 12.2611 20.2413 11.3176 19.3019C9.26021 17.2544 7.20738 15.2015 5.15819 13.1449C4.38336 12.3668 4.23569 11.4127 4.73705 10.4651C4.83094 10.2874 4.96676 10.1243 5.10988 9.98126C7.88649 7.19938 10.6595 4.41204 13.4516 1.64565C14.5135 0.593218 15.8289 0.0556132 17.3202 0.021899C18.9164 -0.0136376 20.5134 0.00367511 22.1105 0.00823109C23.0649 0.0109647 23.8178 0.394578 24.2235 1.28482C24.362 1.58915 24.4176 1.95181 24.4295 2.28986C24.4586 3.10356 24.4386 3.91908 24.4386 4.73278H24.4377ZM21.5389 5.05807C21.5608 3.91544 20.6438 2.90583 19.4077 2.9031C18.1598 2.89945 17.2464 3.85256 17.2409 5.05079C17.2354 6.29639 18.2236 7.20576 19.4004 7.20758C20.5891 7.20941 21.5389 6.25356 21.5389 5.05899V5.05807Z" fill="black"/>
<path id="Vector_2" d="M12.963 0.0975453C12.5403 0.49502 12.1103 0.88429 11.6969 1.29088C9.30018 3.64291 6.90806 5.99949 4.51409 8.35335C3.64937 9.20299 2.7828 10.0508 1.91808 10.9005C1.47413 11.3362 1.47321 11.7118 1.91066 12.143C4.41956 14.6108 6.92753 17.0777 9.43642 19.5455C9.49759 19.6057 9.55598 19.6686 9.61808 19.7333C8.76448 20.2037 7.74591 20.0451 6.99611 19.3103C4.89872 17.2555 2.80412 15.197 0.716923 13.1331C-0.0690185 12.3564 -0.210822 11.3982 0.301709 10.451C0.39439 10.2806 0.526925 10.1237 0.666875 9.98518C3.50757 7.18462 6.34456 4.38042 9.19916 1.59537C10.2168 0.601682 11.4921 0.138569 12.8953 0C12.9175 0.032819 12.9398 0.0647263 12.963 0.0975453Z" fill="black"/>
</g>
</svg>
