<svg width="14" height="22" viewBox="0 0 14 22" fill="none" xmlns="http://www.w3.org/2000/svg">
<path id="Vector" d="M8.07256 21.9986C7.96126 21.9031 7.83366 21.8213 7.74068 21.7092C5.28991 18.7537 2.82557 15.8099 0.224128 12.9878C0.0707423 12.8214 -0.0039142 12.6413 0.000157972 12.4103C0.0103384 11.8445 0.00287276 11.2787 0.00355145 10.7136C0.00423015 10.233 0.178655 10.0653 0.661208 10.0584C1.51636 10.0467 2.37356 10.0612 3.22532 10.0055C4.21622 9.94016 5.16367 9.68991 5.9815 9.0753C6.49052 8.69306 6.8448 8.19601 7.03484 7.5814C7.04298 7.55459 7.04977 7.5264 7.05384 7.49821C7.05588 7.48515 7.04977 7.47072 7.04366 7.43565C6.96425 7.43565 6.88145 7.43565 6.79865 7.43565C4.7551 7.43565 2.71155 7.43565 0.668673 7.43565C0.148792 7.43565 0.00355145 7.28784 0.00287276 6.75848C0.00287276 6.3288 0.00151536 5.89913 0.00287276 5.46945C0.00423015 5.01021 0.162366 4.84796 0.615056 4.84796C2.6016 4.84659 4.58882 4.84796 6.57536 4.84796C6.65748 4.84796 6.73961 4.84796 6.85702 4.84796C6.60522 4.34129 6.25027 3.99067 5.79893 3.73218C5.0354 3.29425 4.19721 3.13544 3.3373 3.10382C2.45432 3.07151 1.56998 3.08663 0.686319 3.08182C0.16576 3.07838 0.00355145 2.91545 0.00355145 2.38746C0.00355145 1.79279 0.00151536 1.1988 0.00355145 0.604126C0.00626623 0.175824 0.176619 0.000515613 0.594017 0.000515613C4.80804 -0.000171871 9.02206 -0.000171871 13.2361 0.000515613C13.6413 0.000515613 13.8164 0.175137 13.8218 0.589689C13.8286 1.06199 13.8286 1.53498 13.8218 2.00728C13.8157 2.42046 13.6453 2.5882 13.2334 2.58958C12.1583 2.59233 11.0839 2.59095 10.0089 2.59095C9.93355 2.59095 9.85821 2.59095 9.75844 2.59095C9.92744 2.88451 10.1046 3.13613 10.2234 3.4125C10.3937 3.81055 10.5301 4.22442 10.6625 4.63759C10.7107 4.78678 10.7616 4.85415 10.9319 4.8514C11.7022 4.8404 12.4732 4.84521 13.2442 4.84728C13.6861 4.84865 13.8476 5.01021 13.8496 5.45364C13.8517 5.92594 13.8537 6.39893 13.8489 6.87123C13.8449 7.25553 13.6677 7.43222 13.2849 7.43428C12.5139 7.43772 11.7436 7.43909 10.9726 7.43222C10.8206 7.43084 10.7554 7.46453 10.7249 7.63227C10.4785 9.00312 9.84939 10.1608 8.79877 11.0704C7.85945 11.8844 6.76132 12.3684 5.56207 12.6303C5.23222 12.7025 4.89763 12.7561 4.53724 12.8235C4.60036 12.8977 4.65194 12.9616 4.70691 13.0221C7.09185 15.638 9.32544 18.3845 11.5563 21.1345C11.8237 21.4644 11.766 21.7326 11.3805 22H8.07121L8.07256 21.9986Z" fill="#FF3939"/>
</svg>
